<svg width="1244" height="47" viewBox="0 0 1244 47" fill="none" xmlns="http://www.w3.org/2000/svg">
<path d="M2.448 36V10.8H18.72V14.508H7.056V21.564H16.488V25.2H7.056V36H2.448ZM29.8949 36.432C28.0949 36.432 26.4989 36.048 25.1069 35.28C23.7149 34.512 22.6229 33.432 21.8309 32.04C21.0389 30.648 20.6429 29.04 20.6429 27.216C20.6429 25.368 21.0269 23.724 21.7949 22.284C22.5869 20.844 23.6669 19.728 25.0349 18.936C26.4269 18.12 28.0589 17.712 29.9309 17.712C31.6829 17.712 33.2309 18.096 34.5749 18.864C35.9189 19.632 36.9629 20.688 37.7069 22.032C38.4749 23.352 38.8589 24.828 38.8589 26.46C38.8589 26.724 38.8469 27 38.8229 27.288C38.8229 27.576 38.8109 27.876 38.7869 28.188H25.2149C25.3109 29.58 25.7909 30.672 26.6549 31.464C27.5429 32.256 28.6109 32.652 29.8589 32.652C30.7949 32.652 31.5749 32.448 32.1989 32.04C32.8469 31.608 33.3269 31.056 33.6389 30.384H38.3189C37.9829 31.512 37.4189 32.544 36.6269 33.48C35.8589 34.392 34.8989 35.112 33.7469 35.64C32.6189 36.168 31.3349 36.432 29.8949 36.432ZM29.9309 21.456C28.8029 21.456 27.8069 21.78 26.9429 22.428C26.0789 23.052 25.5269 24.012 25.2869 25.308H34.1789C34.1069 24.132 33.6749 23.196 32.8829 22.5C32.0909 21.804 31.1069 21.456 29.9309 21.456ZM48.8905 36.432C47.3545 36.432 46.0945 36.192 45.1105 35.712C44.1265 35.208 43.3945 34.548 42.9145 33.732C42.4345 32.916 42.1945 32.016 42.1945 31.032C42.1945 29.376 42.8425 28.032 44.1385 27C45.4345 25.968 47.3785 25.452 49.9705 25.452H54.5065V25.02C54.5065 23.796 54.1585 22.896 53.4625 22.32C52.7665 21.744 51.9025 21.456 50.8705 21.456C49.9345 21.456 49.1185 21.684 48.4225 22.14C47.7265 22.572 47.2945 23.22 47.1265 24.084H42.6265C42.7465 22.788 43.1785 21.66 43.9225 20.7C44.6905 19.74 45.6745 19.008 46.8745 18.504C48.0745 17.976 49.4185 17.712 50.9065 17.712C53.4505 17.712 55.4545 18.348 56.9185 19.62C58.3825 20.892 59.1145 22.692 59.1145 25.02V36H55.1905L54.7585 33.12C54.2305 34.08 53.4865 34.872 52.5265 35.496C51.5905 36.12 50.3785 36.432 48.8905 36.432ZM49.9345 32.832C51.2545 32.832 52.2745 32.4 52.9945 31.536C53.7385 30.672 54.2065 29.604 54.3985 28.332H50.4745C49.2505 28.332 48.3745 28.56 47.8465 29.016C47.3185 29.448 47.0545 29.988 47.0545 30.636C47.0545 31.332 47.3185 31.872 47.8465 32.256C48.3745 32.64 49.0705 32.832 49.9345 32.832ZM71.2218 36C69.3498 36 67.8498 35.544 66.7218 34.632C65.5938 33.72 65.0298 32.1 65.0298 29.772V21.996H61.9698V18.144H65.0298L65.5698 13.356H69.6378V18.144H74.4618V21.996H69.6378V29.808C69.6378 30.672 69.8178 31.272 70.1778 31.608C70.5618 31.92 71.2098 32.076 72.1218 32.076H74.3538V36H71.2218ZM85.1141 36.432C82.8821 36.432 81.1541 35.736 79.9301 34.344C78.7301 32.952 78.1301 30.912 78.1301 28.224V18.144H82.7021V27.792C82.7021 29.328 83.0141 30.504 83.6381 31.32C84.2621 32.136 85.2461 32.544 86.5901 32.544C87.8621 32.544 88.9061 32.088 89.7221 31.176C90.5621 30.264 90.9821 28.992 90.9821 27.36V18.144H95.5901V36H91.5221L91.1621 32.976C90.6101 34.032 89.8061 34.872 88.7501 35.496C87.7181 36.12 86.5061 36.432 85.1141 36.432ZM100.32 36V18.144H104.424L104.856 21.492C105.504 20.34 106.38 19.428 107.484 18.756C108.612 18.06 109.932 17.712 111.444 17.712V22.572H110.148C109.14 22.572 108.24 22.728 107.448 23.04C106.656 23.352 106.032 23.892 105.576 24.66C105.144 25.428 104.928 26.496 104.928 27.864V36H100.32ZM122.954 36.432C121.154 36.432 119.558 36.048 118.166 35.28C116.774 34.512 115.682 33.432 114.89 32.04C114.098 30.648 113.702 29.04 113.702 27.216C113.702 25.368 114.086 23.724 114.854 22.284C115.646 20.844 116.726 19.728 118.094 18.936C119.486 18.12 121.118 17.712 122.99 17.712C124.742 17.712 126.29 18.096 127.634 18.864C128.978 19.632 130.022 20.688 130.766 22.032C131.534 23.352 131.918 24.828 131.918 26.46C131.918 26.724 131.906 27 131.882 27.288C131.882 27.576 131.87 27.876 131.846 28.188H118.274C118.37 29.58 118.85 30.672 119.714 31.464C120.602 32.256 121.67 32.652 122.918 32.652C123.854 32.652 124.634 32.448 125.258 32.04C125.906 31.608 126.386 31.056 126.698 30.384H131.378C131.042 31.512 130.478 32.544 129.686 33.48C128.918 34.392 127.958 35.112 126.806 35.64C125.678 36.168 124.394 36.432 122.954 36.432ZM122.99 21.456C121.862 21.456 120.866 21.78 120.002 22.428C119.138 23.052 118.586 24.012 118.346 25.308H127.238C127.166 24.132 126.734 23.196 125.942 22.5C125.15 21.804 124.166 21.456 122.99 21.456ZM144.001 36.432C142.321 36.432 140.821 36.024 139.501 35.208C138.181 34.392 137.137 33.276 136.369 31.86C135.601 30.444 135.217 28.836 135.217 27.036C135.217 25.236 135.601 23.64 136.369 22.248C137.137 20.832 138.181 19.728 139.501 18.936C140.821 18.12 142.321 17.712 144.001 17.712C145.345 17.712 146.521 17.964 147.529 18.468C148.537 18.972 149.353 19.68 149.977 20.592V10.08H154.585V36H150.481L149.977 33.444C149.401 34.236 148.633 34.932 147.673 35.532C146.737 36.132 145.513 36.432 144.001 36.432ZM144.973 32.4C146.461 32.4 147.673 31.908 148.609 30.924C149.569 29.916 150.049 28.632 150.049 27.072C150.049 25.512 149.569 24.24 148.609 23.256C147.673 22.248 146.461 21.744 144.973 21.744C143.509 21.744 142.297 22.236 141.337 23.22C140.377 24.204 139.897 25.476 139.897 27.036C139.897 28.596 140.377 29.88 141.337 30.888C142.297 31.896 143.509 32.4 144.973 32.4ZM167.964 36V10.8H173.436L181.464 26.784L189.384 10.8H194.856V36H190.248V18.612L183.228 32.4H179.592L172.572 18.612V36H167.964ZM208.205 36.432C206.477 36.432 204.917 36.036 203.525 35.244C202.157 34.452 201.065 33.36 200.249 31.968C199.457 30.552 199.061 28.92 199.061 27.072C199.061 25.224 199.469 23.604 200.285 22.212C201.101 20.796 202.193 19.692 203.561 18.9C204.953 18.108 206.513 17.712 208.241 17.712C209.945 17.712 211.481 18.108 212.849 18.9C214.241 19.692 215.333 20.796 216.125 22.212C216.941 23.604 217.349 25.224 217.349 27.072C217.349 28.92 216.941 30.552 216.125 31.968C215.333 33.36 214.241 34.452 212.849 35.244C211.457 36.036 209.909 36.432 208.205 36.432ZM208.205 32.436C209.405 32.436 210.449 31.992 211.337 31.104C212.225 30.192 212.669 28.848 212.669 27.072C212.669 25.296 212.225 23.964 211.337 23.076C210.449 22.164 209.417 21.708 208.241 21.708C207.017 21.708 205.961 22.164 205.073 23.076C204.209 23.964 203.777 25.296 203.777 27.072C203.777 28.848 204.209 30.192 205.073 31.104C205.961 31.992 207.005 32.436 208.205 32.436ZM225.414 36L218.862 18.144H223.686L228.222 31.644L232.758 18.144H237.582L230.994 36H225.414ZM242.972 15.372C242.132 15.372 241.436 15.12 240.884 14.616C240.356 14.112 240.092 13.476 240.092 12.708C240.092 11.94 240.356 11.316 240.884 10.836C241.436 10.332 242.132 10.08 242.972 10.08C243.812 10.08 244.496 10.332 245.024 10.836C245.576 11.316 245.852 11.94 245.852 12.708C245.852 13.476 245.576 14.112 245.024 14.616C244.496 15.12 243.812 15.372 242.972 15.372ZM240.668 36V18.144H245.276V36H240.668ZM258.762 36.432C256.962 36.432 255.366 36.048 253.974 35.28C252.582 34.512 251.49 33.432 250.698 32.04C249.906 30.648 249.51 29.04 249.51 27.216C249.51 25.368 249.894 23.724 250.662 22.284C251.454 20.844 252.534 19.728 253.902 18.936C255.294 18.12 256.926 17.712 258.798 17.712C260.55 17.712 262.098 18.096 263.442 18.864C264.786 19.632 265.83 20.688 266.574 22.032C267.342 23.352 267.726 24.828 267.726 26.46C267.726 26.724 267.714 27 267.69 27.288C267.69 27.576 267.678 27.876 267.654 28.188H254.082C254.178 29.58 254.658 30.672 255.522 31.464C256.41 32.256 257.478 32.652 258.726 32.652C259.662 32.652 260.442 32.448 261.066 32.04C261.714 31.608 262.194 31.056 262.506 30.384H267.186C266.85 31.512 266.286 32.544 265.494 33.48C264.726 34.392 263.766 35.112 262.614 35.64C261.486 36.168 260.202 36.432 258.762 36.432ZM258.798 21.456C257.67 21.456 256.674 21.78 255.81 22.428C254.946 23.052 254.394 24.012 254.154 25.308H263.046C262.974 24.132 262.542 23.196 261.75 22.5C260.958 21.804 259.974 21.456 258.798 21.456Z" fill="black"/>
<path d="M1142.35 29.716C1141.42 29.716 1140.62 29.548 1139.93 29.212C1139.25 28.876 1138.72 28.408 1138.35 27.808C1137.98 27.208 1137.79 26.512 1137.79 25.72H1139.38C1139.38 26.212 1139.49 26.668 1139.72 27.088C1139.95 27.496 1140.28 27.826 1140.71 28.078C1141.15 28.318 1141.7 28.438 1142.35 28.438C1143.2 28.438 1143.86 28.234 1144.33 27.826C1144.79 27.418 1145.03 26.908 1145.03 26.296C1145.03 25.792 1144.92 25.39 1144.7 25.09C1144.49 24.778 1144.19 24.526 1143.82 24.334C1143.46 24.142 1143.04 23.974 1142.56 23.83C1142.09 23.686 1141.6 23.524 1141.09 23.344C1140.11 23.008 1139.39 22.594 1138.93 22.102C1138.46 21.598 1138.22 20.944 1138.22 20.14C1138.21 19.468 1138.37 18.874 1138.69 18.358C1139.02 17.83 1139.47 17.422 1140.06 17.134C1140.66 16.834 1141.37 16.684 1142.18 16.684C1142.99 16.684 1143.68 16.834 1144.27 17.134C1144.87 17.434 1145.33 17.848 1145.66 18.376C1145.99 18.904 1146.17 19.504 1146.18 20.176H1144.6C1144.6 19.828 1144.51 19.486 1144.33 19.15C1144.15 18.802 1143.87 18.52 1143.5 18.304C1143.14 18.088 1142.68 17.98 1142.13 17.98C1141.45 17.968 1140.88 18.142 1140.44 18.502C1140.01 18.862 1139.79 19.36 1139.79 19.996C1139.79 20.536 1139.94 20.95 1140.24 21.238C1140.55 21.526 1140.98 21.766 1141.54 21.958C1142.09 22.138 1142.72 22.348 1143.44 22.588C1144.04 22.804 1144.58 23.056 1145.06 23.344C1145.54 23.632 1145.92 24.004 1146.18 24.46C1146.46 24.916 1146.59 25.498 1146.59 26.206C1146.59 26.806 1146.44 27.376 1146.13 27.916C1145.81 28.444 1145.34 28.876 1144.7 29.212C1144.08 29.548 1143.29 29.716 1142.35 29.716ZM1152.66 29.716C1151.81 29.716 1151.05 29.524 1150.39 29.14C1149.73 28.744 1149.21 28.198 1148.83 27.502C1148.46 26.806 1148.27 25.984 1148.27 25.036C1148.27 24.1 1148.46 23.284 1148.83 22.588C1149.2 21.88 1149.72 21.334 1150.38 20.95C1151.05 20.554 1151.82 20.356 1152.7 20.356C1153.56 20.356 1154.31 20.554 1154.93 20.95C1155.57 21.334 1156.05 21.844 1156.39 22.48C1156.72 23.116 1156.89 23.8 1156.89 24.532C1156.89 24.664 1156.89 24.796 1156.87 24.928C1156.87 25.06 1156.87 25.21 1156.87 25.378H1149.76C1149.8 26.062 1149.96 26.632 1150.23 27.088C1150.52 27.532 1150.87 27.868 1151.29 28.096C1151.73 28.324 1152.18 28.438 1152.66 28.438C1153.29 28.438 1153.81 28.294 1154.23 28.006C1154.65 27.718 1154.95 27.328 1155.15 26.836H1156.64C1156.4 27.664 1155.94 28.354 1155.25 28.906C1154.58 29.446 1153.72 29.716 1152.66 29.716ZM1152.66 21.634C1151.94 21.634 1151.3 21.856 1150.74 22.3C1150.18 22.732 1149.87 23.368 1149.78 24.208H1155.4C1155.36 23.404 1155.09 22.774 1154.57 22.318C1154.05 21.862 1153.42 21.634 1152.66 21.634ZM1162.91 29.716C1162.06 29.716 1161.3 29.524 1160.64 29.14C1159.98 28.744 1159.46 28.198 1159.08 27.502C1158.7 26.806 1158.52 25.984 1158.52 25.036C1158.52 24.1 1158.7 23.284 1159.08 22.588C1159.45 21.88 1159.96 21.334 1160.62 20.95C1161.3 20.554 1162.07 20.356 1162.95 20.356C1163.81 20.356 1164.55 20.554 1165.18 20.95C1165.81 21.334 1166.3 21.844 1166.64 22.48C1166.97 23.116 1167.14 23.8 1167.14 24.532C1167.14 24.664 1167.13 24.796 1167.12 24.928C1167.12 25.06 1167.12 25.21 1167.12 25.378H1160.01C1160.05 26.062 1160.2 26.632 1160.48 27.088C1160.77 27.532 1161.12 27.868 1161.54 28.096C1161.97 28.324 1162.43 28.438 1162.91 28.438C1163.53 28.438 1164.06 28.294 1164.48 28.006C1164.9 27.718 1165.2 27.328 1165.39 26.836H1166.89C1166.65 27.664 1166.19 28.354 1165.5 28.906C1164.83 29.446 1163.97 29.716 1162.91 29.716ZM1162.91 21.634C1162.19 21.634 1161.55 21.856 1160.98 22.3C1160.43 22.732 1160.11 23.368 1160.03 24.208H1165.65C1165.61 23.404 1165.33 22.774 1164.82 22.318C1164.3 21.862 1163.67 21.634 1162.91 21.634ZM1173.91 29.5V20.572H1175.28L1175.38 21.868C1175.67 21.388 1176.06 21.016 1176.54 20.752C1177.02 20.488 1177.56 20.356 1178.16 20.356C1178.86 20.356 1179.47 20.5 1179.97 20.788C1180.49 21.076 1180.89 21.514 1181.16 22.102C1181.47 21.562 1181.9 21.136 1182.44 20.824C1182.99 20.512 1183.59 20.356 1184.22 20.356C1185.29 20.356 1186.14 20.68 1186.78 21.328C1187.41 21.964 1187.73 22.948 1187.73 24.28V29.5H1186.24V24.442C1186.24 23.518 1186.05 22.822 1185.68 22.354C1185.31 21.886 1184.77 21.652 1184.08 21.652C1183.36 21.652 1182.76 21.934 1182.28 22.498C1181.81 23.05 1181.58 23.842 1181.58 24.874V29.5H1180.06V24.442C1180.06 23.518 1179.88 22.822 1179.51 22.354C1179.13 21.886 1178.6 21.652 1177.9 21.652C1177.2 21.652 1176.6 21.934 1176.12 22.498C1175.65 23.05 1175.42 23.842 1175.42 24.874V29.5H1173.91ZM1194.08 29.716C1193.24 29.716 1192.48 29.524 1191.81 29.14C1191.14 28.756 1190.6 28.216 1190.21 27.52C1189.82 26.812 1189.63 25.984 1189.63 25.036C1189.63 24.088 1189.83 23.266 1190.23 22.57C1190.62 21.862 1191.16 21.316 1191.83 20.932C1192.51 20.548 1193.27 20.356 1194.11 20.356C1194.95 20.356 1195.71 20.548 1196.38 20.932C1197.05 21.316 1197.58 21.862 1197.97 22.57C1198.36 23.266 1198.56 24.088 1198.56 25.036C1198.56 25.984 1198.36 26.812 1197.97 27.52C1197.57 28.216 1197.03 28.756 1196.35 29.14C1195.67 29.524 1194.92 29.716 1194.08 29.716ZM1194.08 28.42C1194.59 28.42 1195.07 28.294 1195.52 28.042C1195.96 27.79 1196.32 27.412 1196.6 26.908C1196.87 26.404 1197.01 25.78 1197.01 25.036C1197.01 24.292 1196.87 23.668 1196.6 23.164C1196.33 22.66 1195.98 22.282 1195.54 22.03C1195.09 21.778 1194.62 21.652 1194.11 21.652C1193.6 21.652 1193.12 21.778 1192.67 22.03C1192.23 22.282 1191.87 22.66 1191.59 23.164C1191.32 23.668 1191.18 24.292 1191.18 25.036C1191.18 25.78 1191.32 26.404 1191.59 26.908C1191.87 27.412 1192.22 27.79 1192.66 28.042C1193.1 28.294 1193.57 28.42 1194.08 28.42ZM1200.66 29.5V20.572H1202.03L1202.16 22.282C1202.43 21.694 1202.85 21.226 1203.42 20.878C1203.98 20.53 1204.68 20.356 1205.5 20.356V21.94H1205.09C1204.56 21.94 1204.08 22.036 1203.63 22.228C1203.19 22.408 1202.83 22.72 1202.57 23.164C1202.31 23.608 1202.17 24.22 1202.17 25V29.5H1200.66ZM1210.88 29.716C1210.03 29.716 1209.27 29.524 1208.61 29.14C1207.95 28.744 1207.43 28.198 1207.05 27.502C1206.68 26.806 1206.49 25.984 1206.49 25.036C1206.49 24.1 1206.68 23.284 1207.05 22.588C1207.42 21.88 1207.94 21.334 1208.6 20.95C1209.27 20.554 1210.04 20.356 1210.92 20.356C1211.78 20.356 1212.53 20.554 1213.15 20.95C1213.79 21.334 1214.27 21.844 1214.61 22.48C1214.94 23.116 1215.11 23.8 1215.11 24.532C1215.11 24.664 1215.11 24.796 1215.09 24.928C1215.09 25.06 1215.09 25.21 1215.09 25.378H1207.98C1208.02 26.062 1208.18 26.632 1208.45 27.088C1208.74 27.532 1209.09 27.868 1209.51 28.096C1209.95 28.324 1210.4 28.438 1210.88 28.438C1211.51 28.438 1212.03 28.294 1212.45 28.006C1212.87 27.718 1213.17 27.328 1213.37 26.836H1214.86C1214.62 27.664 1214.16 28.354 1213.47 28.906C1212.8 29.446 1211.94 29.716 1210.88 29.716ZM1210.88 21.634C1210.16 21.634 1209.52 21.856 1208.96 22.3C1208.4 22.732 1208.09 23.368 1208 24.208H1213.62C1213.58 23.404 1213.31 22.774 1212.79 22.318C1212.27 21.862 1211.64 21.634 1210.88 21.634Z" fill="#BE123C"/>
<path d="M1231.5 17.6667L1237.33 23.5L1231.5 29.3333" stroke="#B91C1C" stroke-width="2" stroke-linecap="round" stroke-linejoin="round"/>
</svg>
